<svg width="512" height="512" viewBox="0 0 512 512" fill="none" xmlns="http://www.w3.org/2000/svg">
<rect width="512" height="512" rx="64" fill="url(#paint0_radial_3274_1289)"/>
<rect x="12" y="12" width="488" height="488" rx="52" stroke="#B9CEF7" stroke-opacity="0.4" stroke-width="24"/>
<path d="M243.617 73.2916C208.842 75.7719 178.807 95.1149 161.806 123.091C161.725 123.227 161.643 123.364 161.562 123.501C161.301 123.928 161.04 124.355 160.788 124.782C160.747 124.854 160.715 124.919 160.682 124.991C160.633 125.08 160.592 125.168 160.543 125.257C157.464 130.902 155.786 137.28 155.786 143.859V307.686C155.786 314.62 161.472 320.241 168.486 320.241H240.953C247.967 320.241 253.653 314.62 253.653 307.686V283.608C253.653 281.104 255.633 279.059 258.166 278.889C310.765 275.467 352.71 233.471 355.325 181.248C358.493 118.001 307.499 68.7417 243.617 73.2916ZM199.449 228.511C199.123 228.527 198.806 228.543 198.488 228.551C197.901 228.575 197.315 228.583 196.728 228.583C196.435 228.583 196.15 228.583 195.857 228.583C192.061 228.519 188.354 228.06 184.794 227.246C176.461 225.33 170.539 218.018 170.539 209.554V143.368C170.539 134.944 176.404 127.616 184.705 125.7C188.142 124.911 191.702 124.443 195.36 124.355H195.458C195.506 124.355 195.563 124.355 195.604 124.355C195.979 124.355 196.345 124.355 196.72 124.355C204.459 124.355 211.807 125.998 218.421 128.961C219.195 129.307 219.961 129.67 220.727 130.056C221.484 130.443 222.234 130.845 222.967 131.264C225.541 132.73 227.977 134.405 230.258 136.257C230.909 136.788 231.537 137.328 232.164 137.9C232.791 138.455 233.402 139.035 233.997 139.623C234.591 140.211 235.178 140.815 235.74 141.435C236.31 142.055 236.864 142.691 237.402 143.327C239.813 146.226 241.923 149.383 243.674 152.749C244.065 153.498 244.432 154.263 244.782 155.028C247.772 161.575 249.442 168.839 249.442 176.481C249.442 177.037 249.434 177.592 249.409 178.148C249.401 178.494 249.393 178.833 249.368 179.163C249.368 179.316 249.352 179.485 249.336 179.638C249.303 180.33 249.246 181.015 249.181 181.699C249.1 182.489 249.01 183.278 248.888 184.067C248.814 184.566 248.741 185.049 248.643 185.549C244.481 209.071 224.36 227.166 199.718 228.527C199.62 228.527 199.531 228.543 199.433 228.543L199.449 228.511ZM211.057 246.428C207.164 245.172 207.856 238.907 211.905 238.698C227.83 237.86 243.34 229.59 253.857 214.539C272.87 187.304 268.308 148.175 243.699 127.149C234.168 119.008 223.032 114.772 211.856 114.216C207.848 114.015 207.212 107.726 211.074 106.486C233.695 99.1896 259.152 105.568 276.804 125.619C301.593 153.78 301.601 199.126 276.804 227.295C259.144 247.354 233.679 253.732 211.057 246.428ZM312.965 239.028C299.345 252.871 282.336 261.173 264.65 263.927C259.665 264.7 257.645 257.71 262.223 255.552C271.102 251.357 279.419 245.542 286.751 238.102C320.223 204.054 320.223 148.852 286.751 114.812C279.419 107.363 271.094 101.541 262.223 97.3616C257.645 95.2035 259.665 88.2136 264.65 88.9867C282.327 91.7327 299.345 100.035 312.965 113.878C346.95 148.449 346.95 204.473 312.965 239.028Z" fill="white"/>
<path d="M351.595 436C347.525 436 343.816 435.212 340.468 433.637C337.12 431.995 334.461 429.796 332.491 427.039C330.522 424.216 329.537 421.065 329.537 417.585V404.488C329.537 400.812 330.555 397.497 332.59 394.542C334.625 391.588 337.317 389.258 340.665 387.551C344.078 385.844 347.755 384.99 351.694 384.99C355.567 384.99 359.112 385.811 362.329 387.452C365.612 389.028 368.205 391.26 370.109 394.148C372.012 396.971 372.964 400.221 372.964 403.897V409.412C372.964 410.856 372.406 412.071 371.29 413.055C370.24 414.04 368.894 414.533 367.253 414.533H341.453V416.699C341.453 419.522 342.306 421.82 344.013 423.592C345.72 425.365 348.28 426.251 351.694 426.251C354.976 426.251 357.405 425.529 358.981 424.085C360.622 422.64 361.443 420.769 361.443 418.472C362.624 418.34 363.445 418.275 363.905 418.275C366.334 418.275 368.238 418.833 369.616 419.949C370.995 420.999 371.684 422.509 371.684 424.479C371.684 426.382 370.798 428.221 369.025 429.993C367.253 431.766 364.824 433.21 361.738 434.326C358.653 435.442 355.272 436 351.595 436ZM361.837 405.768V403.897C361.837 401.14 360.885 398.908 358.981 397.201C357.077 395.494 354.615 394.641 351.595 394.641C348.575 394.641 346.114 395.494 344.21 397.201C342.372 398.842 341.453 401.074 341.453 403.897V405.768H361.837Z" fill="white"/>
<path d="M303.378 436C297.076 436 291.988 434.884 288.115 432.652C284.307 430.354 282.37 427.301 282.305 423.494C282.305 421.853 282.961 420.474 284.274 419.358C285.653 418.242 287.819 417.651 290.773 417.585C291.364 420.474 292.743 422.706 294.909 424.282C297.076 425.791 299.702 426.546 302.787 426.546C306.135 426.546 308.761 426.12 310.665 425.266C312.569 424.413 313.521 423.133 313.521 421.426C313.521 419.85 312.733 418.537 311.158 417.487C309.648 416.436 306.628 415.386 302.098 414.336C297.174 413.154 293.334 411.972 290.577 410.791C287.885 409.609 285.883 408.099 284.57 406.261C283.257 404.423 282.6 401.994 282.6 398.974C282.6 394.772 284.373 391.391 287.918 388.831C291.463 386.27 296.321 384.99 302.492 384.99C308.466 384.99 313.423 386.074 317.362 388.24C321.301 390.341 323.27 393.164 323.27 396.709C323.27 398.481 322.613 399.794 321.3 400.648C319.988 401.501 317.821 401.961 314.801 402.026C314.145 399.4 312.897 397.431 311.059 396.118C309.221 394.805 306.628 394.148 303.28 394.148C300.785 394.148 298.619 394.575 296.78 395.429C295.008 396.282 294.122 397.398 294.122 398.777C294.122 400.221 294.877 401.337 296.387 402.125C297.896 402.913 300.522 403.7 304.264 404.488C311.617 406.064 316.935 408.165 320.217 410.791C323.565 413.417 325.239 416.994 325.239 421.524C325.239 425.923 323.27 429.435 319.331 432.061C315.458 434.687 310.14 436 303.378 436Z" fill="white"/>
<path d="M274.862 436C269.413 436 265.277 434.457 262.454 431.372C259.697 428.221 258.318 424.249 258.318 419.456V372.78C258.318 370.088 259.303 368.184 261.272 367.068C263.307 365.886 266.426 365.295 270.627 365.295V418.964C270.627 421.196 271.12 422.837 272.104 423.888C273.089 424.872 274.665 425.365 276.831 425.365C279.26 425.365 281.689 424.741 284.118 423.494C284.775 424.085 285.267 424.84 285.595 425.759C285.989 426.612 286.186 427.498 286.186 428.417C286.186 430.387 285.201 432.16 283.232 433.735C281.262 435.245 278.472 436 274.862 436Z" fill="white"/>
<path d="M249.106 426.448C249.106 429.534 248.121 431.897 246.151 433.538C244.248 435.179 241.326 436 237.387 436V430.092C238.241 429.107 239.028 428.024 239.751 426.842L239.16 426.448C234.958 432.816 229.312 436 222.222 436C218.874 436 215.854 435.245 213.162 433.735C210.536 432.159 208.436 429.993 206.86 427.236C205.35 424.479 204.595 421.36 204.595 417.881V392.474C204.595 389.783 205.58 387.879 207.549 386.763C209.585 385.581 212.67 384.99 216.806 384.99V416.994C216.806 419.555 217.594 421.59 219.169 423.1C220.745 424.61 223.01 425.365 225.964 425.365C229.247 425.365 231.873 424.347 233.842 422.312C235.877 420.211 236.895 417.618 236.895 414.533V392.474C236.895 389.783 237.88 387.879 239.849 386.763C241.818 385.581 244.904 384.99 249.106 384.99V426.448Z" fill="white"/>
<path d="M140.427 372.189C140.427 370.482 141.05 369.07 142.298 367.954C143.545 366.773 145.121 366.182 147.025 366.182H174.4C179.127 366.182 183.296 367.134 186.907 369.038C190.583 370.876 193.406 373.535 195.375 377.014C197.411 380.428 198.428 384.4 198.428 388.929C198.428 393.525 197.443 397.562 195.474 401.042C193.504 404.455 190.714 407.114 187.104 409.018C183.493 410.856 179.258 411.775 174.4 411.775H153.622V426.251C153.622 429.402 152.473 431.831 150.176 433.538C147.944 435.179 144.694 436 140.427 436V372.189ZM174.4 400.352C177.88 400.352 180.571 399.335 182.475 397.3C184.379 395.265 185.331 392.442 185.331 388.831C185.331 385.286 184.346 382.528 182.377 380.559C180.473 378.59 177.814 377.605 174.4 377.605H153.622V400.352H174.4Z" fill="white"/>
<defs>
<radialGradient id="paint0_radial_3274_1289" cx="0" cy="0" r="1" gradientUnits="userSpaceOnUse" gradientTransform="translate(256.651 512) rotate(-90) scale(512 589.181)">
<stop stop-color="#2CCCFF"/>
<stop offset="1" stop-color="#001CAE"/>
</radialGradient>
</defs>
</svg>
